<?xml version="1.0" encoding="utf-8"?>
<!-- Generator: Adobe Illustrator 24.3.0, SVG Export Plug-In . SVG Version: 6.00 Build 0)  -->
<svg version="1.1" id="Layer_1" xmlns="http://www.w3.org/2000/svg" xmlns:xlink="http://www.w3.org/1999/xlink" x="0px" y="0px"
	 viewBox="0 0 1102.9 1107.6" style="enable-background:new 0 0 1102.9 1107.6;" xml:space="preserve">
<style type="text/css">
	.st0{fill:#2196F3;stroke:#FFFFFF;stroke-width:3;stroke-miterlimit:10;}
	.st1{fill:#1B1B20;stroke:#FFFFFF;stroke-width:3;stroke-miterlimit:10;}
	.st2{fill:none;stroke:#1B1B20;stroke-width:3;stroke-miterlimit:10;}
	.st3{fill:none;stroke:#FFFFFF;stroke-width:3;stroke-miterlimit:10;}
</style>
<g id="Слой_3">
	<path class="st0" d="M182.8,183.9c0,0,57.9,6.7,113.3,72.1s-21.9,101.2-31,104.5s-54.3-23.3-70.2-40.7s-26.3-22.2-27.5-31.5
		S182.8,183.9,182.8,183.9z"/>
	
		<rect x="29.2" y="781.6" transform="matrix(0.9521 -0.3059 0.3059 0.9521 -265.0216 83.9232)" class="st1" width="212.1" height="212.1"/>
	
		<rect x="52.6" y="774.1" transform="matrix(0.9521 -0.3059 0.3059 0.9521 -261.6111 90.7051)" class="st1" width="212.1" height="212.1"/>
	
		<rect x="166" y="833.9" transform="matrix(0.9521 -0.3059 0.3059 0.9521 -274.4698 128.2488)" class="st1" width="212.1" height="212.1"/>
	
		<rect x="203.9" y="1040.1" transform="matrix(0.9521 -0.3059 0.3059 0.9521 -308.4639 145.4714)" class="st1" width="212.1" height="33.9"/>
	<path class="st1" d="M198.4,474.7c0,0,35.8,27.6,58,15.3s9.9-46.2,9.9-46.2l-36.1-20.6L198.4,474.7z"/>
	<path class="st0" d="M217.9,200.8c0,0-4.3-35-42.2-39.5s-71.3-32.5-71.3-32.5s-44.5,46.8-58.6,95.4s-5.7,106.8-5.7,106.8l93.1,33.5
		l83.7-2.7c0,0,41.9-68.8,6.4-96S217.9,200.8,217.9,200.8z"/>
	<path class="st1" d="M174.5,106c-34.8-4-59.1,10.1-70.2,22.8c5.2,9.7,12,18.4,20,25.9c24,22.3,52.3,26.4,63.6,27.5l94.5,15.4
		l16.8-30.8C299.2,166.8,209.3,110,174.5,106z"/>
	<path class="st1" d="M282.4,197.6c0,0,3.2-30.1,16.8-30.8s49.5,38,49.5,38l-41.8,12.7C306.9,217.4,286,197.7,282.4,197.6z"/>
	<path class="st1" d="M116.8,383.9c0,0,51.6,91.5,78.1,96.9s52.5-22.8,37.5-46.8S195,360.5,195,360.5L116.8,383.9z"/>
	<path class="st1" d="M156.6,385.1c0,0-65.2,15.8-87.4,15.8s-47.9-15.3-31.3-63.2c3.9-11.3,7.6-23.1,13.6-33.5
		c3.4-5.8,7.7-10.6,14.2-12.7c14.8-4.9,36.7-5.5,47.6,7.6c6.2,7.4,9.1,17.5,8.8,27.1c-0.1,3-0.6,6-1.5,8.8c-0.3,0.8-2.4,6.4-3.5,6.2
		l38.4,7.5L156.6,385.1z"/>
	<path class="st1" d="M156.4,492.2c0,0,12.5,12.5,24.5,10s119.7-30,119.7-30l20.4,12.5c0,0-91.4,49-113.3,47.5s-51.3-2.3-51.3-2.3
		s-25.3-31.3-23-32.3S156.4,492.2,156.4,492.2z"/>
	<path class="st1" d="M233.1,647.5c0,0,56.5-3.1,66.3-14.7s15.9-30.4-30.2-27.7S233.1,647.5,233.1,647.5z"/>
	<path class="st1" d="M203.8,703.9c0,0,55,26.6,70,22.9s20.4-25.2,2-33.4s-40.6-14.5-40.6-14.5L203.8,703.9z"/>
	<path class="st1" d="M155.2,674.1c0,0,23.4,33,43.6,35.5s56.3-19.3,44.5-33.6s-13.2-32.7-13.2-32.7L155.2,674.1z"/>
	<path class="st1" d="M202.2,367.3l-23.4,6.4l11.7,38.2l192.7,119.3l14.1-63c0,0-65.4-74.5-71.3-77.2S202.2,367.3,202.2,367.3z"/>
	<polygon class="st1" points="348.7,456 364.2,494.4 383.2,531.1 510.9,365 495.7,292.7 	"/>
	<polygon class="st1" points="178.8,373.7 364.2,494.4 498.1,294.2 309.2,181.1 	"/>
	<polygon class="st0" points="235.8,289.5 251.8,265.9 350.5,332.3 338.5,350 	"/>
	<line class="st2" x1="344.7" y1="340.9" x2="431.6" y2="393.6"/>
	<path class="st1" d="M154.9,520c0,0,12.6-21.5,3.9-31.7s-58-22.8-74.6-14.3s-15.4,98.7-3.4,131.8S154.9,520,154.9,520z"/>
	<path class="st0" d="M89.5,499.9c0,0,25.5-13.3,52.8,1.7c27.3,15,55.8,44,73.7,39.2c0,0,52.1,21.3,17.9,55.5s-89.6,19.1-89.6,19.1
		l-47.7-24.2l-5.1-15.3L89.5,499.9z"/>
	<path class="st1" d="M145.3,545.3c0,0,26.6,16.7,29.8,24.4s-10.7,23.8-17.9,29.5s-32,7.8-32,7.8l-16.4-35.5c0,0,1.4-16.3,11.2-22.5
		S145.3,545.3,145.3,545.3z"/>
	<path class="st0" d="M116.7,591.2c0,0,43.3-36.4,60.3-20s70.5,13.8,70.5,20s2,50.9-23.5,73.3s-92.3,30.7-124.3-14.1S70,504,70,504
		L116.7,591.2z"/>
	<path class="st1" d="M189.5,622.8l-17.9-1.2c0,0-52.7,11.7-58.6,30.1s15.7,26.6,41.3,28.2s61.7-16.1,61.7-16.1L189.5,622.8z"/>
	<path class="st1" d="M199.7,630.5c0,0,21.4,19.5,18.6,30s-24.6-1.9-31.1-10.1S199.7,630.5,199.7,630.5z"/>
	<path class="st1" d="M300.7,433.8c-3.8-2.4-4.6,0.2-4.6,0.2s1.7-14-3.9-14c-3.1-0.1-5.8,2.2-6.3,5.3c0.5-3.2,0-14.1-4.3-13.5
		s-6.5,17.2-6.5,17.2c-1-4.6-3.4-9.5-6.5-5.6c-1.2,1.5-2.5,9.2-3.5,18.5c-1-9.1-9.9-12.7-11.6-12s2.5,14.3,3.4,27.6
		s7.3,20.4,7.3,20.4l0,0c0.1,0.9,0.4,1.7,0.7,2.5c3.4,8.2-12.3,98.8-16.4,104.6s-77,36.5-77,36.5c3.8,16.7,15.7,28.8,15.7,28.8
		s94.2-38,101-53.9s3.4-88.1,5.1-107.5s7-13.6,9.4-32S304.4,436.3,300.7,433.8z"/>
	<path class="st1" d="M243.7,254.3c-3.7,15.8-21.7,32.5-47.8,39.1c-21.7,5.5-49,3.9-78.2-11.2C53.3,249.1,77,205.1,77,205.1
		s18-48.1,84.6-36.5c13.6,2.2,26.8,6.5,39.1,12.7C236.9,200.1,248.9,232.1,243.7,254.3z"/>
	<path class="st0" d="M215.8,272.3c-5.7,7.9-12.3,15.1-19.9,21.2c-6.1,1.5-12.4,2.5-18.7,2.8c-17.9,0.9-38.2-2.9-59.5-13.9
		c-8.8-4.4-17.1-9.9-24.5-16.4c-15-13.5-19.7-27.2-20.4-38.3c-0.5-7.7,0.9-15.4,4.2-22.4c0,0,5.1-13.6,19.8-24.6
		c9.1-6.8,21.8-12.6,39.2-13.6c8.5-0.4,17.1,0.1,25.5,1.6c13.6,2.2,26.8,6.5,39.1,12.6c4.5,4.6,8.6,9.5,12.3,14.8
		c5.9,8.3,10.7,17.7,13.1,27.7C229.6,238.6,227.7,255.1,215.8,272.3z"/>
	<path class="st0" d="M215.8,272.3L72.9,227.6c-0.5-7.7,0.9-15.4,4.2-22.4c0,0,5.1-13.6,19.8-24.6l129.2,43.2
		C229.6,238.6,227.7,255.1,215.8,272.3z"/>
	<path class="st0" d="M177.2,296.2c-17.9,0.9-38.2-2.9-59.5-13.9c-8.8-4.4-17.1-9.9-24.5-16.4C115.4,260.9,161.3,256.1,177.2,296.2z
		"/>
	<path class="st0" d="M213,196c-50.7,7.4-69.8-13.6-76.9-29.1c8.5-0.4,17.1,0.1,25.5,1.6c13.6,2.2,26.8,6.5,39.1,12.7
		C205.1,185.9,209.3,190.8,213,196z"/>
	<path class="st1" d="M157.3,550c-0.2,13.6-11.9,30.5-32.1,40.5c-16.8,8.3-39.4,11.9-66,4.8c-58.6-15.7-47-55.9-47-55.9
		s6.1-42.6,62.7-45c11.5-0.6,23.1,0.5,34.2,3.4C142,506.9,157.5,530.9,157.3,550z"/>
	<path class="st1" d="M690.4,1000.4c0,0-58.6,22.1-71.5,0s34.4-37.1,65.5-47S690.4,1000.4,690.4,1000.4z"/>
	<path class="st1" d="M662.1,813.2c0,0,10-12.7,32-4.7s34.3,36.6,34.3,36.6L688,888.7c0,0-7.7,1.3-13.2-13.2s-13.5-28.8-17.3-37.7
		S662.1,813.2,662.1,813.2z"/>
	<path class="st1" d="M691,863.8l13.4-6.5c0,0-10.2-25.9-10.2-37.4s-13.3-3.7-8.8,11.9C688.2,842.3,690.1,853,691,863.8z"/>
	<path class="st1" d="M703.9,879.7c0,0,3.2-40.7,33.6-47.8s72.2,7.8,72.2,7.8L774.3,919c0,0-36,9.6-47.7,10.6l-10.5,0.9
		c0,0-14.1,10.9-18.6-4.1S703.9,879.7,703.9,879.7z"/>
	<path class="st0" d="M745.2,921.6l-23.1-35.1c0,0,33.1-57.8,62.6-54.6s74.9,68.1,74.9,68.1l-50.4,21.6L745.2,921.6z"/>
	<path class="st0" d="M884.7,879.7l27.1,15.8c0,0-0.4,65.1-13.5,91.4s-39.4,45.8-39.4,45.8l-72.7-51.2l-84,4.1
		c0,0,9.5-110.4,25.4-99.9s56.1,19.1,79.4,10.4C830.2,887.4,884.7,879.7,884.7,879.7z"/>
	<path class="st1" d="M802.1,817.8c0,0-39.2-22.4-61.7-24s-53.7-23.5-77.7-32.2c-14.1-5.2-28.5-9.5-43.2-12.9L598.1,695l6-6.8
		c0,0-6-18.4,1.4-13.2s14.4,19.8,26,25.3s12.3,18.4,18.6,23.2s59.5,15,83.8,17s91.5,36.6,91.5,36.6L802.1,817.8z"/>
	<polygon class="st1" points="427.7,782.9 379.4,756.1 351.4,708 554.9,603.9 583.8,650.4 	"/>
	<polygon class="st1" points="583.8,650.4 379.4,756.1 487.7,966.6 694.1,855.6 	"/>
	<path class="st1" d="M792.9,822.4c0,0-15-36.8,25.9-50s95.4,36.3,81.1,84.9C885.6,906,792.9,822.4,792.9,822.4z"/>
	<path class="st1" d="M426.4,185c-2.7-0.8-4.5-3.2-4.4-6c0-5,12.6-8.5,12.6-8.5L426.4,185z"/>
	<path class="st1" d="M536,109.7c0,0-31.3,31.8-34.3,52.5S488.6,199.7,478,199s-14.7-0.5-15.7-4.3c0,0-13.1,9.1-18.2,8.7
		s-3.8-10.2-3.8-10.2s-3.8,6.9-9.8,0.5c0,0-7.8,4.3-7.5-0.9c0.4-5.5,6.1-21.7,12.7-22.6s31.4,0,36-4.2S508.4,86,508.4,86L536,109.7z
		"/>
	<path class="st1" d="M583.3,329.5c0,0-21.5,20.1-40,4.1s-4.9-40,14.6-53.1s27.2-34.5,27.2-34.5l64.5,1.8c0,0,19.5,29.5,18.6,35.4
		S583.3,329.5,583.3,329.5z"/>
	<path class="st1" d="M749.1,376.3c0,0-3.4,41-14.5,60.4s10,50,29.8,23.2s23.2-74.4,23.2-74.4L749.1,376.3z"/>
	<path class="st1" d="M652.8,277.8c0,0-14.8,20,31,50.4s59,74,59,74s46-0.3,52.3-26.9s-30-102.9-62.7-130.6S652.8,277.8,652.8,277.8
		z"/>
	<path class="st0" d="M536,109.7c0,0,14.5,38,0,73.3s6.8,70.2,66.8,86.6s58.6-86.6,58.6-86.6l-20-56c0,0-8.6-27.2-19.5-38.6
		S536,109.7,536,109.7z"/>
	<path class="st1" d="M547.8,70c0,0-16.7,38,13.5,74.5s35.2,69.8,35.2,69.8s50.1-27.2,50.5-46s-23.5-65.4-23.5-65.4l-36.1-36.4
		L547.8,70z"/>
	<path class="st0" d="M737.3,207.4c0,0,15,56.3-15.9,81.8S603.7,276,602.8,269.6s-20.1-50.5-4.5-95.8s0.5-80.7,0.5-80.7l-24.3-81.7
		c0,0,13.1-17,42.6-5.6s11.7,31.8,58.1,62.2s59.4,65.3,59.9,66.7S737.3,207.4,737.3,207.4z"/>
	<path class="st1" d="M666.2,304.3c0,0-7.3,5.1-6.8,7.8s26.4-5.5,29.5-6.8s10.7-15.7,10.7-15.7L666.2,304.3z"/>
	<path class="st1" d="M660.1,304.3c0,0-5.8-8-1.7-9s17.9-7.7,21.3-10.9s12.6-20.1,12.6-20.1s5.6,9.2,5.6,11.1s-5.6,16.4-8.5,17.5
		S660.1,304.3,660.1,304.3z"/>
	<path class="st1" d="M699.4,226.9c0,0-74.6,56.9-98.1,73.9s-30.8,25.5-33.3,39.2s-18.6,22.3-16.4,29.5s25.7-21.3,30-20.2
		s-8,22.7-18.4,26.8s-22.9,6.1-22,11.3s34.5-2.3,42-6.3s24.8-52.2,42-61.5s128.1-68.5,132.5-77.2S699.4,226.9,699.4,226.9z"/>
	<path class="st1" d="M686.2,233c0,0,19.4,24.9,55.2,15.3c35.8-9.5,50.1-32.7,29.6-42.6s-30.3-41.6-34.8-66.8s-54.8-35.4-69.8-3.7
		S653.8,205.4,686.2,233z"/>
	<path class="st1" d="M893.3,927.3c-15.9,15.2-36.8,18.8-57.4,12.3c-14-4.4-27.9-13.3-40.1-26.3c-6.6-7.1-12.4-14.9-17.3-23.3
		c-0.8-1.3-1.5-2.7-2.2-4c-25.7-48.8,12.1-84.4,53.2-85c12.5-0.2,24.2,3.7,34.7,9.7c24.9,14.2,42.3,40,44.7,48.4
		C908.7,859.2,925.6,896.5,893.3,927.3z"/>
	<path class="st1" d="M1055.9,494c-0.7,16.3-3.8,32.5-9.1,47.9c-8.6,24.3-2.3,42.5,11.8,45.9s26.8-30.4,30.9-46.9s2.7-45.1,2.7-45.1
		L1055.9,494z"/>
	<path class="st1" d="M1023.7,469.5c0,0,10.8,5.5,26,34.1c15.2,28.6,35.3,22.7,44.3,10.5c9.1-12.3,15.5-80.7-16.8-110.6
		S1023.7,469.5,1023.7,469.5z"/>
	<path class="st1" d="M910.8,272.6c0,0-45.7,14.5-36.4,50.2s29.1,73.9,17.6,92.7s37.2,16,42.3,14.3s10.2-2,21.8-22.8
		s14-60.1,14-60.1L910.8,272.6z"/>
	<path class="st1" d="M901.5,345.5l5.9-40l81.8,6.3c0,0-20.9,47.8-23.7,48.4s-39.9,27.9-39.9,27.9L901.5,345.5z"/>
	<path class="st0" d="M907.4,305.5c0,0,0.9,50.9,32.7,76.8s-32.7,56.8-32.7,56.8s22.3-21.1-3.6-71.2s-17.2-71.4,0-83.7
		S907.4,305.5,907.4,305.5z"/>
	<path class="st0" d="M961.3,304.6c0,0,7,21.4-22.1,40.9s-2.3,93.5-2.3,93.5l65,36.8c0,0,63.1,5.9,81.8-35s5-47.2-21.3-88.6
		s-41.2-90.8-70.6-92.6S961.3,304.6,961.3,304.6z"/>
	<polygon class="st1" points="875.9,495.1 942.5,403.4 991.7,459.4 915.5,680.5 866.3,642.8 	"/>
	<polygon class="st1" points="692.5,553 643.3,571.4 709.9,626.4 915.5,680.5 877.8,630.3 819.9,533.7 	"/>
	<polygon class="st1" points="643.3,571.4 877.8,630.3 942.5,403.4 718.6,345.5 	"/>
	<path class="st1" d="M1013,323.3c-38.6,13.5-29,56-27,72.4s-2.9,75.3-6.8,92.7s-36.7,76.3-36.7,76.3v15.4l15.2,57.2
		c66.4-71.1,71.7-153.8,85.2-218.4S1051.6,309.8,1013,323.3z"/>
	<path class="st1" d="M942.5,598.4c0,0,2.9,40.5,12.5,40.5s6.2-51.1,6.2-51.1L942.5,598.4z"/>
	<path class="st1" d="M880.7,652.5c0,0-11.6-5.8-6.8,1.9s16.5,9.2,17,7S880.7,652.5,880.7,652.5z"/>
	<path class="st1" d="M942.5,564.6c0,0,22.2,14.5,18.3,25.1c-4,10.9-14.9,11.2-31.9,32.8c-4.6,5.9-12.5,17.4-26.1,32.8
		c-2.8,3.2-7,7.8-12.5,7.7c-6.7-0.1-12.7-6.9-13.5-11.6c-1-5.8,12.6,1.9,12.6,1.9l20.3-25.1c0,0-8.7-12.5,4.8-23.2
		C932.3,591.2,942.4,564.8,942.5,564.6L942.5,564.6z"/>
	<path class="st1" d="M911.3,633.4l-19.5,23.8c-2-1.6-3.2-4.1-3.3-6.7c0-4.2,10.8-12.5,11.7-20s10-21,10-21"/>
	<path class="st1" d="M566.1,136.1c-7.7-1.9-15.1-4.7-22.1-8.3c-6.7-3.4-13.1-7.2-19.3-11.5c-15.7-10.9-29.6-25.7-36.1-43.9
		c-7.3-20.5-5.5-47.7,13-61.8c7.4-5.7,16.8-8.4,26.1-8.9c22.6-1.1,48.8,8.3,67.2,21.4l0,0c0.3,0.2,0.7,0.5,1,0.7
		c14.9,10.9,38.6,28.1,39.7,56.5c0.8,21-10.8,44.2-30.6,53.6C590.6,140.7,576.1,138.5,566.1,136.1z"/>
	<path class="st0" d="M566.1,136.1c-1.8-0.4-3.5-0.9-5.2-1.5c-5.8-1.8-11.4-4.1-16.8-6.9c-0.8-0.5-1.7-1.1-2.5-1.7
		c-12.2-8.5-23.4-19.4-30.8-32.4c-2.1-3.7-3.8-7.5-5.2-11.5c-1.7-4.7-2.8-9.6-3.4-14.6c-2.2-17.5,2.1-36.3,16.4-47.3
		c2.5-1.9,5.2-3.5,8.1-4.8c5.7-2.5,11.8-3.9,18-4.1c6.3-0.3,12.6,0.2,18.8,1.2c11,2,21.6,5.4,31.6,10.3l0,0c0.3,0.2,0.7,0.5,1,0.7
		c6.2,4.5,13.9,10.2,20.9,17.2c9.8,9.9,18.1,22.7,18.8,39.2c0,0.6,0,1.1,0,1.7c0.2,18.9-9.7,39.4-26.4,49.6
		c-1.4,0.9-2.8,1.6-4.2,2.3C590.6,140.7,576.1,138.5,566.1,136.1z"/>
	<path class="st0" d="M609.4,131.4L502,67.6c-2.2-17.5,2.1-36.3,16.5-47.3c2.5-1.9,5.2-3.5,8.1-4.8l109.2,66.3
		C635.9,100.8,626.1,121.3,609.4,131.4z"/>
	<path class="st0" d="M576.4,38.4c-11.6-8.6-13.8-18.2-13.1-25.7c11,2,21.6,5.4,31.6,10.3l0,0c0.3,0.2,0.7,0.5,1,0.7
		c6.2,4.5,13.9,10.2,20.9,17.2C606.8,45.3,590.7,49,576.4,38.4z"/>
	<path class="st0" d="M560.8,134.6c-5.8-1.8-11.4-4.1-16.8-6.9c-0.8-0.5-1.7-1.1-2.5-1.7c-12.2-8.5-23.4-19.4-30.8-32.4
		c7-1.5,20-1.1,37,13C560.7,117.2,562.4,127.2,560.8,134.6z"/>
	<path class="st1" d="M1009,242c-0.8,7.3-2.4,14.4-4.7,21.3c-2.2,6.6-4.9,13-8,19.1c-7.9,15.8-19.6,30.5-35.5,38.8
		c-17.8,9.3-42.9,11.3-58.3-3.8c-6.2-6-9.9-14.2-11.6-22.7c-4-20.6,1.2-45.8,10.7-64.4l0,0l0.5-1c8-15.1,20.7-39,46.5-43.8
		c19.1-3.5,41.9,4.1,53.1,21C1010,218.9,1009.9,232.5,1009,242z"/>
	<path class="st0" d="M1009,242c-0.2,1.7-0.4,3.3-0.7,5c-0.9,5.5-2.3,11-4.1,16.3c-0.4,0.8-0.8,1.7-1.2,2.5
		c-6.2,12.3-14.7,24-25.7,32.5c-3.1,2.4-6.4,4.5-9.8,6.3c-4.1,2.1-8.4,3.8-12.9,5c-15.7,4.3-33.5,2.8-45.4-8.8
		c-2.1-2-3.9-4.3-5.4-6.8c-3-4.9-5.1-10.3-6.1-16c-1.1-5.7-1.5-11.5-1.3-17.3c0.3-10.3,2.1-20.5,5.2-30.3l0,0l0.5-1
		c3.3-6.3,7.5-14.1,13.1-21.4c7.8-10.3,18.4-19.6,33.4-22.4c0.5-0.1,1.1-0.2,1.6-0.3c17.3-2.6,37.3,3.7,48.9,17.6
		c1,1.1,1.9,2.3,2.7,3.6C1010,218.9,1009.9,232.5,1009,242z"/>
	<path class="st0" d="M999.1,202.9l-44.4,106.7c-15.7,4.3-33.5,2.8-45.4-8.8c-2.1-2-3.9-4.3-5.4-6.8l46.4-108.7
		C967.5,182.6,987.5,189,999.1,202.9z"/>
	<path class="st0" d="M918.2,245.4c-6.3,11.7-14.9,15-21.8,15.3c0.3-10.3,2.1-20.5,5.2-30.3l0,0l0.5-1c3.3-6.3,7.5-14.1,13.1-21.4
		C920.5,216.6,926,230.9,918.2,245.4z"/>
	<path class="st0" d="M1008.3,247c-0.9,5.5-2.3,11-4.1,16.3c-0.4,0.8-0.8,1.7-1.2,2.5c-6.2,12.3-14.7,24-25.7,32.5
		c-2.3-6.2-3.6-18.2,7-35.6C992.4,249.4,1001.3,246.5,1008.3,247z"/>
	<line class="st2" x1="826.5" y1="373.4" x2="758.6" y2="600.3"/>
	<polygon class="st0" points="777.5,486.9 740.5,595.8 772.8,603.9 804.7,494 	"/>
	<path class="st0" d="M912.8,888.6c-1.2,11.9-6.1,25.9-19.5,38.7c-4.5,4.4-9.8,8-15.5,10.6c-12.9,5.9-27.5,6.2-41.9,1.7
		c-14-4.4-27.9-13.3-40.1-26.3c-1.5-2.2-2.9-4.5-4.3-6.9c-4.2-7-7.5-14.6-9.6-22.5c-3.2-12.4-2.5-23.8,0.9-33.6
		c6.2-17.7,21.5-30.8,39.9-37.2c7.9-2.7,16.3-4.2,24.7-4.3c5.6-0.1,11.2,0.6,16.7,1.9c24.9,14.2,42.3,40,44.7,48.4
		C912.4,868.6,913.8,878.6,912.8,888.6z"/>
	<path class="st0" d="M835.9,939.7c-14-4.4-27.9-13.3-40.1-26.3c-6.6-7.1-12.4-14.9-17.3-23.3c-0.8-1.3-1.5-2.7-2.2-4
		c1.8-1,3.7-1.8,5.7-2.1c6.7-1.4,19.2-1,36.4,12.1C835.2,908.9,836.9,927.5,835.9,939.7z"/>
	<path class="st0" d="M912.8,888.6c-1.2,11.9-6.1,25.9-19.5,38.7c-4.5,4.4-9.8,8-15.5,10.6c-32.9-76.5-95-87.6-95-87.6
		c6.2-17.7,21.5-30.8,39.9-37.2C860.7,826.9,892.7,853.6,912.8,888.6z"/>
	<path class="st1" d="M601.7,195.6c0,0,34.6,6.1,48,12.6v16.4l-48-11.6V195.6z"/>
	<line class="st3" x1="440.2" y1="193.2" x2="446.3" y2="179"/>
	<line class="st3" x1="459.2" y1="180.4" x2="451.8" y2="194.2"/>
	<path class="st3" d="M479.3,183.9c0,0-18,3.7-17.1,10.7"/>
	<line class="st3" x1="430.4" y1="193.7" x2="436.5" y2="177.6"/>
	<line class="st3" x1="453.7" y1="190.6" x2="461.6" y2="188.6"/>
	<path class="st1" d="M737.5,988.7l24.5-21.8c0,0,56.8-16.8,94,10.9s7.3,65.4-32.7,69s-48-15.5-50.9-22.9
		C769.6,1016.4,737.5,988.7,737.5,988.7z"/>
	<path class="st1" d="M762,966.9l-41.8,1.2c0-8.5-1-17-2.9-25.3c-8.9-38.8-0.7-57.5-8.9-77.3s-34.1-48.2-42.2-47.7
		s-1.9,7.5,4.1,14.8s18,18.7,15.8,21.5s-35.8-31.7-40.7-29.1s-2.7,10.9,4.8,17.4c0,0-9.9,0-7.4,7.2s10.5,12.8,10.5,12.8
		s-9.2-3.2-8.7,5.1s27.2,33.2,30.1,38.7s-8.5,82.9,7.6,100.2s83.6,22.5,90.2,17.7C772.5,1023.9,756.4,985.9,762,966.9z"/>
	<line class="st2" x1="492.8" y1="697.4" x2="594" y2="909.4"/>
	<polygon class="st0" points="604.5,903.8 576.2,919 527.7,825.6 554.5,813.2 	"/>
	<line class="st3" x1="675.4" y1="863.8" x2="650.2" y2="842.3"/>
	<line class="st3" x1="673.2" y1="875.6" x2="653.3" y2="862.2"/>
	<path class="st0" d="M137.6,569.6c-3.2,7.5-7.4,14.5-12.5,20.9c-4.7,2.3-9.7,4.2-14.8,5.6c-14.5,3.9-31.7,4.4-51.2-0.8
		c-8-2-15.7-5.1-22.9-9c-14.7-8.3-21-18.8-23.5-27.7c-1.8-6.2-2-12.8-0.6-19.1c0,0,1.7-12,11.8-23.6c6.2-7.2,15.6-14.2,29.7-18.1
		c6.9-1.9,14-3,21.2-3.2c11.5-0.6,23.1,0.5,34.2,3.4c4.5,3,8.7,6.3,12.7,9.9c6.5,5.7,11.8,12.6,15.7,20.3
		C142.9,539.7,144.3,553.5,137.6,569.6z"/>
	<path class="st0" d="M137.6,569.6L12.7,558.6c-1.8-6.2-2-12.8-0.6-19.1c0,0,1.7-12,11.8-23.6l113.4,12.3
		C142.9,539.7,144.3,553.5,137.6,569.6z"/>
	<path class="st0" d="M110.3,596.1c-14.5,3.9-31.7,4.4-51.2-0.8c-8-2-15.7-5.1-22.9-9C53.4,578.3,90.2,566.1,110.3,596.1z"/>
	<path class="st0" d="M121.8,507.8c-40.2,15.1-59.5,1.3-68.1-10.1c6.9-1.9,14-3,21.2-3.2c11.5-0.6,23.1,0.5,34.2,3.4
		C113.5,500.9,117.8,504.2,121.8,507.8z"/>
	<line class="st2" x1="264.2" y1="457.7" x2="265.1" y2="442"/>
	<line class="st2" x1="273.1" y1="456" x2="275.1" y2="429.1"/>
	<line class="st2" x1="285.9" y1="425.3" x2="283.1" y2="453.8"/>
	<line class="st3" x1="296.1" y1="434" x2="293.4" y2="453.8"/>
	<path class="st1" d="M178.8,373.7c0,0,37,19.8,39.1,21s-1,3.8-1,3.8s3.6,3.7,1.7,5.6s-7.5,1.7-7.5,1.7c1.4,1,1.8,3,0.7,4.5
		c-0.1,0.1-0.1,0.2-0.2,0.3c-2.2,2.7-8.5,0-8.5,0s4.9,5.6-0.7,7.3s-22.5-7.7-29.5-16.2s-10.9-14.3-16.4-16.5s-11.8-31.3-9.7-35.1
		s34.2,1.7,39.5-1.4s7.7-18,19.4-14.9L178.8,373.7z"/>
	<line class="st3" x1="216.9" y1="398.5" x2="179.9" y2="383.9"/>
	<line class="st3" x1="211.1" y1="405.7" x2="178.8" y2="393"/>
	<line class="st3" x1="203.1" y1="410.5" x2="176.5" y2="399.4"/>
	<path class="st2" d="M88.7,373.4c0,0,25.7-28.3,28.4-32.2"/>
	<line class="st2" x1="207.9" y1="185.5" x2="219.2" y2="166.8"/>
	
		<rect x="101.7" y="836.9" transform="matrix(0.9521 -0.3059 0.3059 0.9521 -278.4572 108.7457)" class="st1" width="212.1" height="212.1"/>
	
		<rect x="95.3" y="816.8" transform="matrix(0.9521 -0.3059 0.3059 0.9521 -272.6214 105.8084)" class="st0" width="212.1" height="212.1"/>
	<line class="st3" x1="302.4" y1="890.4" x2="100.4" y2="955.3"/>
	
		<rect x="216.4" y="896.5" transform="matrix(0.9521 -0.3059 0.3059 0.9521 -263.9847 122.9727)" class="st1" width="88" height="14.7"/>
	<line class="st3" x1="275" y1="428.4" x2="274.1" y2="454.4"/>
	<line class="st3" x1="286.1" y1="424.4" x2="284.5" y2="454.4"/>
</g>
</svg>
